<svg width="327" height="158" viewBox="0 0 327 158" fill="none" xmlns="http://www.w3.org/2000/svg">
<path d="M108.284 46.6779C106.05 46.9779 -16.6247 60.4719 1.90534 79.7149C20.4363 98.9579 113.273 250.515 280.761 68.7719C280.761 68.7719 322.098 95.1429 319.248 85.1649C316.397 75.1869 298.579 60.2199 298.579 60.2199C298.579 60.2199 331.364 6.76591 326.375 2.48991C321.386 -1.78609 287.888 26.7219 278.623 53.8059C278.623 53.8049 193.097 35.2739 108.284 46.6779Z" fill="#305177"/>
<mask id="mask0_2_3" style="mask-type:luminance" maskUnits="userSpaceOnUse" x="0" y="2" width="327" height="156">
<path d="M108.284 46.6779C106.05 46.9779 -16.6247 60.4719 1.90534 79.7149C20.4363 98.9579 113.273 250.515 280.761 68.7719C280.761 68.7719 322.098 95.1429 319.248 85.1649C316.397 75.1869 298.579 60.2199 298.579 60.2199C298.579 60.2199 331.364 6.76591 326.375 2.48991C321.386 -1.78609 287.888 26.7219 278.623 53.8059C278.623 53.8049 193.097 35.2739 108.284 46.6779Z" fill="white"/>
</mask>
<g mask="url(#mask0_2_3)">
<path d="M-3.56164 74.8559C-3.56164 74.8559 161.665 155.647 280.725 68.7809L291.052 106.443L285.585 147.75L213.906 172.048H99.0974L24.9884 160.506L-15.1036 130.134L-3.56164 74.8559Z" fill="#5FA3CF"/>
</g>
<path d="M105.433 53.8049C105.433 53.8049 129.663 17.1319 168.708 0.282918C171.05 -0.728082 173.631 1.10492 173.426 3.64792C172.416 16.1949 169.84 46.4539 168.152 50.9549C166.014 56.6559 105.433 53.8049 105.433 53.8049Z" fill="#305177"/>
<path d="M235.777 107.575C235.777 107.575 250.358 112.245 264.636 108.299C265.492 108.062 265.793 107.002 265.183 106.356C262.171 103.17 254.868 95.5159 253.428 94.6629C251.603 93.5809 235.777 107.575 235.777 107.575Z" fill="#305177"/>
<path d="M126.861 101.699C126.861 101.699 156.544 140.11 200.923 155.477C203.585 156.399 206.278 154.169 205.844 151.386C203.706 137.65 198.397 104.534 196.17 99.7149C193.349 93.6089 126.861 101.699 126.861 101.699Z" fill="#305177"/>
<path d="M250.339 55.9139C250.339 55.9139 258.003 40.1659 269.561 33.2749C270.254 32.8619 270.963 33.6949 270.857 34.8049C270.331 40.2819 269.023 53.4899 268.453 55.4389C267.73 57.9079 250.339 55.9139 250.339 55.9139Z" fill="#305177"/>
<path d="M83.6073 107.464C94.1753 107.464 102.742 98.168 102.742 86.7009C102.742 75.2338 94.1753 65.9379 83.6073 65.9379C73.0394 65.9379 64.4724 75.2338 64.4724 86.7009C64.4724 98.168 73.0394 107.464 83.6073 107.464Z" fill="white"/>
<path d="M86.0503 94.4369C91.2219 94.4369 95.4144 89.8877 95.4144 84.2759C95.4144 78.6641 91.2219 74.1149 86.0503 74.1149C80.8787 74.1149 76.6863 78.6641 76.6863 84.2759C76.6863 89.8877 80.8787 94.4369 86.0503 94.4369Z" fill="#004060"/>
<path d="M89.7143 84.2759C89.7143 86.4719 88.0743 88.2519 86.0503 88.2519C84.0263 88.2519 82.3864 86.4719 82.3864 84.2759C82.3864 82.0799 84.0273 80.2999 86.0503 80.2999C88.0733 80.2999 89.7143 82.0799 89.7143 84.2759Z" fill="#00141C"/>
<path d="M89.9294 81.3789C90.3514 82.0349 90.2044 82.8819 89.5994 83.2709C88.9954 83.6599 88.1623 83.4439 87.7403 82.7879C87.3183 82.1319 87.4653 81.2849 88.0703 80.8959C88.6743 80.5059 89.5074 80.7229 89.9294 81.3789Z" fill="white"/>
<path d="M81.7873 144.047C81.7873 144.047 90.1423 149.721 87.1933 141.358L81.7873 144.047Z" fill="white"/>
<path d="M98.5163 129.893C98.5163 129.893 105.577 129.557 100.412 126.116L98.5163 129.893Z" fill="white"/>
<path d="M76.7013 146.147C90.2183 142.94 101.252 131.708 102.652 117.75C102.681 117.459 102.226 117.461 102.196 117.75C100.817 131.501 89.8743 142.554 76.5793 145.708C76.2953 145.776 76.4153 146.215 76.7013 146.147Z" fill="#004060"/>
<path d="M99.4853 116.323C100.089 116.99 100.912 117.569 101.775 117.831C103.308 118.296 104.524 117.499 105.399 116.277C105.57 116.038 105.175 115.811 105.006 116.047C104.026 117.417 102.686 117.906 101.173 117.076C100.668 116.799 100.195 116.429 99.8083 116.001C99.6103 115.783 99.2893 116.106 99.4853 116.323Z" fill="#004060"/>
</svg>
